<?xml version="1.0" encoding="UTF-8" standalone="no"?>
<svg
   xmlns:dc="http://purl.org/dc/elements/1.1/"
   xmlns:cc="http://creativecommons.org/ns#"
   xmlns:rdf="http://www.w3.org/1999/02/22-rdf-syntax-ns#"
   xmlns:svg="http://www.w3.org/2000/svg"
   xmlns="http://www.w3.org/2000/svg"
   xmlns:sodipodi="http://sodipodi.sourceforge.net/DTD/sodipodi-0.dtd"
   xmlns:inkscape="http://www.inkscape.org/namespaces/inkscape"
   version="1.1"
   id="Layer_1"
   width="695px"
   height="185px"
   viewBox="-3.5 -3.5 695 185"
   enable-background="new -3.5 -3.5 695 185"
   xml:space="preserve"
   inkscape:version="0.48.4 r9939"
   sodipodi:docname="AngularJS_logo.svg"><metadata
   id="metadata66"><rdf:RDF><cc:Work
       rdf:about=""><dc:format>image/svg+xml</dc:format><dc:type
         rdf:resource="http://purl.org/dc/dcmitype/StillImage" /><dc:title></dc:title></cc:Work></rdf:RDF></metadata><defs
   id="defs64">
	
	
	
	
	
	
	
	
	
	
	
	
	
	
	
	
	
</defs><sodipodi:namedview
   pagecolor="#ffffff"
   bordercolor="#666666"
   borderopacity="1"
   objecttolerance="10"
   gridtolerance="10"
   guidetolerance="10"
   inkscape:pageopacity="0"
   inkscape:pageshadow="2"
   inkscape:window-width="1920"
   inkscape:window-height="1147"
   id="namedview62"
   showgrid="false"
   inkscape:zoom="1.6028552"
   inkscape:cx="347.5"
   inkscape:cy="92.5"
   inkscape:window-x="1912"
   inkscape:window-y="-8"
   inkscape:window-maximized="1"
   inkscape:current-layer="Layer_1" />
<filter
   id="googleDropShadow">
	<feOffset
   result="offOut"
   in="SourceGraphic"
   dx="0.3"
   dy="0.5"
   id="feOffset4" />
	<feGaussianBlur
   stdDeviation="0.25"
   result="blurOut"
   in="offOut"
   id="feGaussianBlur6" />
	<feColorMatrix
   type="matrix"
   result="blurTransOut"
   in="blurOut"
   values="1 0 0 0 0 0 1 0 0 0 0 0 1 0 0 0 0 0 .8 0"
   id="feColorMatrix8" />
	<feBlend
   in="SourceGraphic"
   mode="normal"
   in2="blurTransOut"
   id="feBlend10" />
</filter>
<polygon
   style="fill:#cccccc"
   id="polygon14"
   points="186.407,57.715 229.733,114.75 229.733,57.715 238.394,57.715 238.394,128.516 229.236,128.516 185.914,70.98 185.914,128.516 177.248,128.516 177.248,57.715 " /><path
   style="fill:#cccccc"
   inkscape:connector-curvature="0"
   id="path16"
   d="m 308.698,125.743 c -5.708,2.182 -11.867,3.269 -18.468,3.269 -25.643,0 -38.47,-12.294 -38.47,-36.886 0,-23.271 12.378,-34.908 37.13,-34.908 7.102,0 13.705,0.993 19.807,2.976 v 7.921 c -6.103,-2.311 -12.378,-3.468 -18.817,-3.468 -19.306,0 -28.957,9.163 -28.957,27.479 0,19.638 9.5,29.462 28.518,29.462 3.033,0 6.399,-0.398 10.099,-1.193 v -24.06 h 9.158 l 0,29.408 0,0 z" /><path
   style="fill:#cccccc"
   inkscape:connector-curvature="0"
   id="path18"
   d="M 323.305,101.186 V 57.718 h 9.153 v 43.467 c 0,13.599 6.769,20.406 20.304,20.406 13.531,0 20.3,-6.808 20.3,-20.406 V 57.718 h 9.158 v 43.467 c 0,18.557 -9.819,27.83 -29.458,27.83 -19.638,0.001 -29.457,-9.273 -29.457,-27.829 z" /><polygon
   style="fill:#cccccc"
   id="polygon20"
   points="444.758,121.092 444.758,128.516 398.563,128.516 398.563,57.715 407.717,57.715 407.717,121.092 " /><polygon
   style="fill:#cccccc"
   id="polygon22"
   points="483.669,48.376 518.87,128.518 508.723,128.518 499.56,106.234 476.148,106.234 478.671,98.816 496.495,98.816 483.275,66.728 457.973,128.518 448.469,128.518 " /><path
   style="fill:#cccccc"
   inkscape:connector-curvature="0"
   id="path24"
   d="M 528.526,128.516 V 57.715 h 30.203 c 13.469,0 20.201,5.663 20.201,16.981 0,9.212 -6.581,16.029 -19.754,20.447 l 24.309,33.373 H 571.404 L 548.88,96.682 v -5.986 c 13.53,-2.151 20.295,-7.349 20.295,-15.598 0,-6.533 -3.762,-9.806 -11.283,-9.806 h -20.206 v 63.227 h -9.159 l -0.001,-0.003 0,0 z" /><path
   style="fill:#cccccc"
   inkscape:connector-curvature="0"
   id="path26"
   d="m 617.798,57.715 v 50.404 c 0,13.598 -8.005,20.396 -24.017,20.396 v -7.425 c 9.904,0 14.857,-4.329 14.857,-12.972 V 57.715 h 9.16 z" /><path
   style="fill:#cccccc"
   inkscape:connector-curvature="0"
   id="path28"
   d="m 634.137,126.04 v -8.418 c 7.429,2.64 15.447,3.965 24.063,3.965 12.18,0 18.272,-4.457 18.272,-13.376 0,-7.58 -4.493,-11.385 -13.47,-11.385 h -9.113 c -14.817,0 -22.233,-6.432 -22.233,-19.306 0,-13.531 9.495,-20.304 28.479,-20.304 8.249,0 15.922,0.998 23.021,2.976 v 8.417 c -7.101,-2.643 -14.772,-3.964 -23.021,-3.964 -12.875,0 -19.311,4.293 -19.311,12.875 0,7.588 4.354,11.385 13.065,11.385 h 9.113 c 15.08,0 22.628,6.441 22.628,19.306 0,13.868 -9.142,20.801 -27.432,20.801 -8.614,0 -16.632,-0.994 -24.061,-2.972 z" /><polygon
   id="polygon30"
   points="188.723,55.402 232.045,112.438 232.045,55.402 240.711,55.402 240.711,126.203 231.552,126.203 188.227,68.667 188.227,126.203 179.565,126.203 179.565,55.402 " /><path
   inkscape:connector-curvature="0"
   id="path32"
   d="m 311.015,123.43 c -5.708,2.182 -11.864,3.268 -18.467,3.268 -25.645,0 -38.47,-12.293 -38.47,-36.885 0,-23.271 12.378,-34.909 37.135,-34.909 7.096,0 13.7,0.994 19.802,2.976 v 7.92 c -6.103,-2.311 -12.378,-3.468 -18.813,-3.468 -19.307,0 -28.96,9.163 -28.96,27.479 0,19.639 9.504,29.463 28.517,29.463 3.034,0 6.404,-0.396 10.103,-1.193 V 94.02 h 9.154 l -0.001,29.41 0,0 z" /><path
   inkscape:connector-curvature="0"
   id="path34"
   d="M 325.621,98.871 V 55.398 h 9.153 V 98.87 c 0,13.598 6.769,20.401 20.305,20.401 13.53,0 20.299,-6.804 20.299,-20.401 V 55.398 h 9.158 V 98.87 c 0,18.556 -9.819,27.825 -29.457,27.825 -19.639,0 -29.458,-9.267 -29.458,-27.824 z" /><polygon
   id="polygon36"
   points="447.071,118.775 447.071,126.199 400.88,126.199 400.88,55.398 410.034,55.398 410.034,118.775 " /><polygon
   id="polygon38"
   points="485.987,46.056 521.188,126.202 511.035,126.202 501.877,103.92 478.46,103.92 480.989,96.496 498.808,96.496 485.592,64.408 460.29,126.202 450.785,126.202 " /><path
   inkscape:connector-curvature="0"
   id="path40"
   d="M 530.843,126.203 V 55.402 h 30.202 c 13.47,0 20.196,5.659 20.196,16.982 0,9.207 -6.577,16.028 -19.749,20.445 l 24.31,33.374 H 573.716 L 551.195,94.368 v -5.992 c 13.531,-2.151 20.299,-7.344 20.299,-15.598 0,-6.533 -3.766,-9.801 -11.292,-9.801 h -20.2 v 63.226 c 0,0 -9.159,0 -9.159,0 z" /><path
   style="fill:#a6120d"
   inkscape:connector-curvature="0"
   id="path42"
   d="m 620.115,55.398 v 50.405 c 0,13.602 -8.005,20.396 -24.016,20.396 v -7.424 c 9.903,0 14.856,-4.33 14.856,-12.973 V 55.398 h 9.16 z" /><path
   style="fill:#a6120d"
   inkscape:connector-curvature="0"
   id="path44"
   d="m 636.45,123.723 v -8.416 c 7.43,2.639 15.447,3.965 24.064,3.965 12.179,0 18.271,-4.459 18.271,-13.373 0,-7.584 -4.492,-11.385 -13.47,-11.385 h -9.113 c -14.817,0 -22.232,-6.436 -22.232,-19.311 0,-13.531 9.491,-20.303 28.478,-20.303 8.249,0 15.923,0.998 23.022,2.976 v 8.418 c -7.102,-2.644 -14.773,-3.965 -23.022,-3.965 -12.875,0 -19.311,4.293 -19.311,12.875 0,7.588 4.351,11.385 13.065,11.385 h 9.113 c 15.079,0 22.628,6.438 22.628,19.31 0,13.865 -9.141,20.797 -27.431,20.797 -8.614,-0.001 -16.633,-0.995 -24.062,-2.973 z" />
<g
   id="g48">
	<polygon
   fill="#B3B3B3"
   points="83.243,0.875 0.554,29.975 13.621,138.311 83.331,176.625 153.4,137.792 166.462,29.46  "
   id="polygon50" />
	<polygon
   fill="#A6120D"
   points="158.214,35.721 83.05,10.089 83.05,167.471 146.041,132.609  "
   id="polygon52" />
	<polygon
   fill="#DD1B16"
   points="9.833,36.183 21.03,133.072 83.049,167.471 83.049,10.086  "
   id="polygon54" />
	<path
   fill="#F2F2F2"
   d="M103.74,93.871l-20.69,9.675H61.243l-10.251,25.64l-19.067,0.353L83.05,15.804L103.74,93.871z M101.74,89   L83.187,52.271L67.969,88.368h15.08L101.74,89z"
   id="path56" />
	<polygon
   fill="#B3B3B3"
   points="83.049,15.804 83.186,52.271 100.454,88.396 83.088,88.396 83.049,103.523 107.062,103.546    118.285,129.543 136.529,129.881  "
   id="polygon58" />
</g>

</svg>